<?xml version="1.0" encoding="utf-8"?>
<!-- Generator: Adobe Illustrator 25.3.1, SVG Export Plug-In . SVG Version: 6.00 Build 0)  -->
<svg version="1.1" id="Logo" xmlns="http://www.w3.org/2000/svg" xmlns:xlink="http://www.w3.org/1999/xlink" x="0px" y="0px"
	 viewBox="0 0 250 250" style="enable-background:new 0 0 250 250;" xml:space="preserve">
<style type="text/css">
	.st0{fill:#D1E8E6;}
	.st1{fill:#144552;}
</style>
<path vector-effect="non-scaling-stroke" class="st0" d="M125,244.7H34.3C18.2,244.7,5,231.6,5,215.5v-90.7c0-66.1,53.9-120,120-120
	l0,0c66.1,0,120,53.9,120,120l0,0C245,190.9,191.1,244.7,125,244.7z"/>
<path vector-effect="non-scaling-stroke" class="st1" d="M181.6,110c-9.3-4.5-19.1-8.7-28.4-13.2c-26.6-12.7-46.9-1.3-60.7,16.4
	c-3.9,4.8-5.1,10.3-0.9,16.9c29.3-18,55.6-7.7,83.1,5.6c-2.1,1.3-3.3,2.1-4.5,2.6c-18.8,9.5-39.8,14.8-61,15.9
	C77.2,155.8,5,156.1,5,156.1v30.7c0,0,50.1,0,71.7,0c6.6,0,13.5-0.5,20-1.3c18.5-2.1,34.4-10.1,50.5-17.5
	c20.6-9.5,41.9-17.7,65.8-17.2c1.8,0,4.8-1.6,5.7-2.9c4.2-7.9,8.1-15.9,12.6-24.9C212.4,122.2,196.5,117.4,181.6,110z"/>
<path vector-effect="non-scaling-stroke" class="st1" d="M126,76.8c6.5-7.4,11.4-13.1,16.6-18.8c-8.3-5.7-15.7-11.2-24-17.2
	c-4.6,5.4-9.2,10.1-13.2,15.5c-0.9,1.4-1.2,4.4-0.3,5.2C111.6,66.8,118.7,71.7,126,76.8z"/>
</svg>
